<?xml version="1.0" encoding="UTF-8" standalone="no"?>
<!-- Created with Inkscape (http://www.inkscape.org/) -->

<svg
   width="50"
   height="50"
   viewBox="0 0 13.229166 13.229167"
   version="1.1"
   id="svg5"
   inkscape:version="1.1 (c68e22c387, 2021-05-23)"
   sodipodi:docname="logo1.svg"
   inkscape:export-filename="C:\Users\Elvis Caleb\Desktop\Demenagement\logo12.png"
   inkscape:export-xdpi="96"
   inkscape:export-ydpi="96"
   xmlns:inkscape="http://www.inkscape.org/namespaces/inkscape"
   xmlns:sodipodi="http://sodipodi.sourceforge.net/DTD/sodipodi-0.dtd"
   xmlns="http://www.w3.org/2000/svg"
   xmlns:svg="http://www.w3.org/2000/svg">
  <sodipodi:namedview
     id="namedview7"
     pagecolor="#505050"
     bordercolor="#eeeeee"
     borderopacity="1"
     inkscape:pageshadow="0"
     inkscape:pageopacity="0"
     inkscape:pagecheckerboard="0"
     inkscape:document-units="mm"
     showgrid="false"
     inkscape:zoom="5.0587708"
     inkscape:cx="100.51849"
     inkscape:cy="18.285074"
     inkscape:window-width="1366"
     inkscape:window-height="705"
     inkscape:window-x="-8"
     inkscape:window-y="-8"
     inkscape:window-maximized="1"
     inkscape:current-layer="layer1"
     units="px"
     fit-margin-top="0"
     fit-margin-left="0"
     fit-margin-right="0"
     fit-margin-bottom="0"
     width="20px" />
  <defs
     id="defs2">
    <inkscape:path-effect
       effect="spiro"
       id="path-effect56"
       is_visible="true"
       lpeversion="1" />
  </defs>
  <g
     inkscape:label="Calque 1"
     inkscape:groupmode="layer"
     id="layer1"
     transform="translate(180.08624,-19.295036)">
    <path
       style="fill:#ff6600;stroke:none;stroke-width:0.0273327px;stroke-linecap:butt;stroke-linejoin:miter;stroke-opacity:1"
       d="m -172.76784,21.005673 -4.70341,3.916041 h 1.12359 l -0.009,5.178176 5.96809,0.185449 1.25251,-2.113402 v -3.223216 l 1.17585,-0.02702 -1.80298,-1.485396 -0.0262,-1.539407 -1.3849,-0.02702 v 0.351093 l 0.0523,0.216055 z"
       id="path58"
       sodipodi:nodetypes="cccccccccccccc" />
    <rect
       style="fill:#cccccc;stroke:none;stroke-width:0.0666743;stroke-linecap:round;stroke-linejoin:round;stroke-miterlimit:4;stroke-dasharray:none"
       id="rect2562-5"
       width="1.5773569"
       height="1.4530966"
       x="-172.53882"
       y="25.710899" />
    <rect
       style="fill:#cccccc;stroke:none;stroke-width:0.0666743;stroke-linecap:round;stroke-linejoin:round;stroke-miterlimit:4;stroke-dasharray:none"
       id="rect2562-7"
       width="1.5773569"
       height="1.4530966"
       x="-172.56384"
       y="23.98156" />
    <rect
       style="fill:#cccccc;stroke:none;stroke-width:0.0666743;stroke-linecap:round;stroke-linejoin:round;stroke-miterlimit:4;stroke-dasharray:none"
       id="rect2562-3"
       width="1.5773569"
       height="1.4530966"
       x="-174.56094"
       y="25.684948" />
    <path
       style="fill:#008000;stroke:#ececec;stroke-width:0.120485;stroke-linecap:butt;stroke-linejoin:miter;stroke-miterlimit:4;stroke-dasharray:none;stroke-opacity:1"
       d="m -167.64416,23.610899 c -0.0567,-0.195033 -0.12927,-0.38545 -0.21676,-0.568751 -0.17615,-0.369072 -0.41162,-0.707146 -0.66835,-1.025478 -0.4319,-0.535537 -0.93042,-1.022719 -1.50832,-1.39603 -0.95618,-0.61767 -2.10425,-0.902783 -3.24242,-0.922071 -0.74696,-0.01266 -1.4997,0.08629 -2.20377,0.336082 -0.45992,0.163173 -0.89662,0.389729 -1.30057,0.663547 -1.08365,0.734558 -1.93082,1.826844 -2.32119,3.076435 -0.33778,1.081242 -0.32911,2.268268 0.0271,3.343578 0.41438,1.250896 1.29388,2.333405 2.40823,3.036728 1.11436,0.703324 2.45318,1.030766 3.76954,0.970395 1.03085,-0.04728 2.05506,-0.330153 2.94346,-0.855163 0.7071,-0.417871 1.34124,-1.011149 1.64459,-1.774425 0.0465,-0.117108 0.0853,-0.239069 0.0922,-0.364901 0.007,-0.125831 -0.0207,-0.256814 -0.0962,-0.357707 -0.0617,-0.08251 -0.15425,-0.141429 -0.25512,-0.162507 -0.10088,-0.02108 -0.20923,-0.0041 -0.29885,0.04675 -0.0896,0.05088 -0.1597,0.135238 -0.1933,0.232662 -0.0336,0.09742 -0.0304,0.20705 0.009,0.302355 -0.2844,0.309627 -0.60224,0.588522 -0.94621,0.830271 -0.52177,0.366717 -1.10901,0.649156 -1.73411,0.775569 -0.54063,0.109331 -1.10306,0.100241 -1.64379,-0.0086 -0.25049,-0.05042 -0.49724,-0.122208 -0.73158,-0.224056 -0.0906,-0.03939 -0.18042,-0.08394 -0.25547,-0.148245 -0.0751,-0.06431 -0.13488,-0.15064 -0.15096,-0.248155 -0.009,-0.05471 -0.004,-0.111411 0.0122,-0.164427 0.0162,-0.05301 0.0436,-0.102377 0.0781,-0.145802 0.0635,-0.08 0.15069,-0.139328 0.24489,-0.178878 0.0942,-0.03955 0.19545,-0.06009 0.29702,-0.07103 0.29956,-0.03227 0.60238,0.01719 0.90318,0 0.25419,-0.01453 0.5046,-0.07683 0.74061,-0.172347 0.25964,-0.105081 0.5046,-0.251884 0.70448,-0.44811 0.1092,-0.107204 0.20453,-0.228805 0.27999,-0.361933 0.0333,-0.05879 0.0632,-0.121008 0.073,-0.187862 0.005,-0.03343 0.005,-0.06778 -0.003,-0.100779 -0.007,-0.033 -0.0217,-0.06463 -0.0434,-0.09053 -0.0276,-0.03289 -0.0661,-0.05561 -0.10729,-0.06774 -0.0412,-0.01213 -0.0849,-0.01408 -0.12754,-0.0098 -0.0975,0.0098 -0.18858,0.05086 -0.27998,0.08617 -0.24915,0.09627 -0.51223,0.152422 -0.77674,0.189586 -0.1407,0.01977 -0.28242,0.03429 -0.4245,0.03446 -0.42262,5.19e-4 -0.83354,-0.125058 -1.24639,-0.215435 -0.12558,-0.02749 -0.25193,-0.0518 -0.37933,-0.06894 -0.45639,-0.06139 -0.92819,-0.02866 -1.36381,0.120642 -0.10083,0.03456 -0.20102,0.07558 -0.30708,0.08618 -0.13575,0.01357 -0.27198,-0.02388 -0.3974,-0.07756 -0.25968,-0.111135 -0.48667,-0.292962 -0.66426,-0.512615 -0.1776,-0.219653 -0.30672,-0.476397 -0.39246,-0.745537 -0.19261,-0.604636 -0.16551,-1.26441 -0.006,-1.878609 0.19691,-0.758199 0.59195,-1.46052 1.11648,-2.042338 0.56178,-0.623138 1.27583,-1.111941 2.0683,-1.387412 0.58728,-0.204144 1.21172,-0.290697 1.83346,-0.292997 0.60117,-0.0022 1.2044,0.07399 1.77926,0.249909 0.55846,0.170899 1.08771,0.43548 1.5625,0.775573 0.41952,0.300502 0.79852,0.661941 1.09286,1.085801 0.17472,0.251601 0.31845,0.523124 0.47869,0.784187 0.0238,0.03877 0.0482,0.07771 0.0632,0.120645 0.0148,0.04225 0.0202,0.08741 0.0361,0.129264 0.004,0.01164 0.01,0.02342 0.0196,0.03126 0.005,0.0039 0.0107,0.0067 0.0168,0.0075 0.006,7.62e-4 0.0127,-6.21e-4 0.0177,-0.0043 0.005,-0.0035 0.008,-0.0089 0.009,-0.01472 8e-4,-0.0058 -8.6e-4,-0.01193 -0.004,-0.01655 -0.004,-0.0046 -0.009,-0.0077 -0.015,-0.0083 -0.006,-5.92e-4 -0.0119,0.0013 -0.0164,0.0051 z"
       id="path54"
       inkscape:path-effect="#path-effect56"
       inkscape:original-d="m -167.64416,23.610899 c -0.009,-0.01151 -0.14448,-0.379142 -0.21676,-0.568751 -0.0723,-0.189609 -0.44555,-0.683631 -0.66835,-1.025478 -0.22282,-0.341851 -0.90393,-1.058207 -1.50832,-1.39603 -0.97311,-0.543922 -2.11705,-0.851549 -3.24242,-0.922071 -0.74232,-0.04652 -1.49874,0.109596 -2.20377,0.336082 -0.46591,0.149671 -0.93064,0.354627 -1.30057,0.663547 -0.99656,0.832166 -1.91957,1.872376 -2.32119,3.076435 -0.35424,1.062075 -0.52342,2.360553 0.0271,3.343578 1.1735,2.095435 4.11854,2.671439 6.17777,4.007123 2.05922,1.335681 2.15471,-0.636832 2.94346,-0.855163 0.78875,-0.218335 0.8438,-1.016061 1.64459,-1.774425 0.8008,-0.75836 -0.0824,-0.581831 -0.004,-0.722608 0.0782,-0.140776 -0.74747,0.436525 -0.73847,0.419264 -0.30746,0.561819 -0.46154,0.435982 -0.94621,0.830271 -0.32517,0.264244 -1.15604,0.517072 -1.73411,0.775569 -0.57806,0.2585 -1.09584,-0.0057 -1.64379,-0.0086 -0.54796,-0.003 -0.48769,-0.149342 -0.73158,-0.224056 -0.24388,-0.07471 -0.27093,-0.264241 -0.40643,-0.3964 -0.1355,-0.13216 0.0602,-0.206796 0.0903,-0.310229 0.0301,-0.103437 0.3613,-0.166581 0.54191,-0.249909 0.18061,-0.08333 0.60215,2.6e-5 0.90318,0 0.30103,-2.3e-5 0.49377,-0.114872 0.74061,-0.172347 0.24684,-0.05747 0.46968,-0.298715 0.70448,-0.44811 0.23481,-0.149394 0.18669,-0.241265 0.27999,-0.361933 0.0933,-0.120673 0.0181,-0.252754 0.0271,-0.379169 0.009,-0.126416 -0.15653,-0.05168 -0.23483,-0.07755 -0.0783,-0.0259 -0.18663,0.05747 -0.27998,0.08617 -0.0934,0.0287 -0.5178,0.126415 -0.77674,0.189586 -0.25894,0.06317 -0.28298,0.02302 -0.4245,0.03446 -0.14153,0.01147 -0.8309,-0.143598 -1.24639,-0.215435 -0.41548,-0.07184 -0.25286,-0.04593 -0.37933,-0.06894 -0.12648,-0.02302 -0.90918,0.08045 -1.36381,0.120642 -0.45463,0.04019 -0.20469,0.05748 -0.30708,0.08618 -0.10239,0.0287 -0.26491,-0.05168 -0.3974,-0.07756 -0.1325,-0.0259 -0.8693,-0.751342 -1.05672,-1.258152 -0.21839,-0.590523 -0.16094,-1.270196 -0.006,-1.878609 0.19048,-0.746001 0.58622,-1.464779 1.11648,-2.042338 0.55533,-0.604848 1.28861,-1.082177 2.0683,-1.387412 0.57328,-0.224434 1.21382,-0.287145 1.83346,-0.292997 0.59944,-0.0057 1.20889,0.07383 1.77926,0.249909 0.55859,0.172444 1.09253,0.439846 1.5625,0.775573 0.42101,0.300743 0.7286,0.723893 1.09286,1.085801 0.36425,0.361907 0.31915,0.522816 0.47869,0.784187 0.15953,0.261374 0.0422,0.08046 0.0632,0.120645 0.0211,0.04019 0.0241,0.0862 0.0361,0.129264 0.012,0.04306 0.0362,0.02302 0.0542,0.03445 0.018,0.01147 -0.018,-0.02295 -0.0271,-0.03445 z"
       sodipodi:nodetypes="sssaaaaaassssccssssssssssssssssssssaaaaaaasssssss" />
    <rect
       style="fill:#cccccc;stroke:none;stroke-width:0.0666743;stroke-linecap:round;stroke-linejoin:round;stroke-miterlimit:4;stroke-dasharray:none"
       id="rect2562"
       width="1.5773569"
       height="1.4530966"
       x="-174.56094"
       y="23.98156" />
  </g>
</svg>
